<svg id="Layer_1" data-name="Layer 1" xmlns="http://www.w3.org/2000/svg" viewBox="0 0 305.23 294.5"><defs><style>.cls-1{fill:#bcad42;}.cls-2{fill:#fcfcfa;}.cls-3{fill:#666;}.cls-4{fill:#e8dd91;}.cls-5{fill:#cec35d;}</style></defs><title>email-icon</title><polygon class="cls-1" points="305.23 97.5 154.49 195.04 0.79 97.5 305.23 97.5"/><polygon class="cls-1" points="0.74 97.4 151.57 0 305.19 97.68 0.74 97.4"/><path class="cls-2" d="M44.37,17.5H254.46A21.46,21.46,0,0,1,275.91,39V268a0,0,0,0,1,0,0h-253a0,0,0,0,1,0,0V39A21.46,21.46,0,0,1,44.37,17.5Z"/><rect class="cls-3" x="32.46" y="248.9" width="235" height="6.6"/><rect class="cls-3" x="31.37" y="216.57" width="235" height="6.6"/><rect class="cls-3" x="32.46" y="186.07" width="235" height="5.54"/><rect class="cls-3" x="31.37" y="156.47" width="235" height="5.54"/><rect class="cls-3" x="32.46" y="120.17" width="235" height="5.54"/><rect class="cls-3" x="31.37" y="83.07" width="235" height="5.54"/><rect class="cls-3" x="32.46" y="48.55" width="99.54" height="5.54"/><path class="cls-4" d="M625.82,362.63A26.41,26.41,0,0,1,606.5,371h-253A26.51,26.51,0,0,1,327,344.5V173l0.79,0.5L481.49,271l144.17,91.49Z" transform="translate(-327 -76.5)"/><path class="cls-5" d="M632,174V344.5c0,7-2.19,13.3-6.59,18l-144-91.24L632.23,174H632Z" transform="translate(-327 -76.5)"/></svg>